<?xml version="1.0" encoding="UTF-8"?><svg id="b" xmlns="http://www.w3.org/2000/svg" width="1000" height="1000" viewBox="0 0 1000 1000"><defs><style>.d{fill:#012e40;}.e{fill:#fafafa;}</style></defs><g id="c"><rect class="e" width="1000" height="1000"/><path class="d" d="m500,373.67c0-60.89,44.12-121.78,132.37-182.67h-264.74c88.25,60.89,132.37,121.78,132.37,182.67Z"/><path class="d" d="m500.66,551.74v-72.11c0-.36-.29-.66-.66-.66s-.66.29-.66.66v72.11c-7.12,85.75-72.81,171.51-197.09,257.26,131.83-90.96,263.66-90.96,395.49,0-124.28-85.75-189.97-171.51-197.09-257.26Z"/><path class="d" d="m500,438.49c-.36,0-.66-.29-.66-.66v-26.37c0-.36.29-.66.66-.66s.66.29.66.66v26.37c0,.36-.29.66-.66.66Z"/></g></svg>