<?xml version="1.0" encoding="utf-8"?>
<!-- Generator: Adobe Illustrator 15.1.0, SVG Export Plug-In . SVG Version: 6.00 Build 0)  -->
<!DOCTYPE svg PUBLIC "-//W3C//DTD SVG 1.1//EN" "http://www.w3.org/Graphics/SVG/1.1/DTD/svg11.dtd">
<svg version="1.1" id="レイヤー_1" xmlns="http://www.w3.org/2000/svg" xmlns:xlink="http://www.w3.org/1999/xlink" x="0px"
	 y="0px" width="300px" height="77.335px" viewBox="0 0 300 77.335" enable-background="new 0 0 300 77.335" xml:space="preserve">
<g>
	<path d="M33.333,19.001h4.32v23.424l9.792-9.84h6l-10.608,10.32l11.52,12.384h-6.144l-10.56-11.808v11.808h-4.32V19.001z"/>
	<path d="M57.572,24.377c0-0.864,0.312-1.608,0.936-2.232s1.368-0.936,2.232-0.936c0.864,0,1.608,0.312,2.232,0.936
		s0.936,1.368,0.936,2.232c0,0.864-0.312,1.608-0.936,2.232s-1.368,0.936-2.232,0.936c-0.864,0-1.608-0.312-2.232-0.936
		S57.572,25.241,57.572,24.377z M58.581,32.537h4.32v22.752h-4.32V32.537z"/>
	<path d="M81.86,38.249c-0.512-0.64-1.145-1.176-1.896-1.608c-0.752-0.432-1.672-0.648-2.76-0.648c-1.024,0-1.913,0.216-2.664,0.648
		c-0.752,0.432-1.128,1.064-1.128,1.896c0,0.672,0.216,1.216,0.648,1.632c0.432,0.417,0.943,0.752,1.536,1.008
		c0.592,0.256,1.224,0.448,1.896,0.576c0.672,0.128,1.248,0.24,1.728,0.336c0.928,0.225,1.8,0.497,2.616,0.816
		s1.52,0.736,2.112,1.248c0.591,0.513,1.056,1.137,1.392,1.872c0.336,0.737,0.504,1.632,0.504,2.688c0,1.28-0.272,2.376-0.816,3.288
		c-0.544,0.912-1.248,1.656-2.112,2.232c-0.864,0.576-1.848,0.992-2.952,1.248s-2.216,0.384-3.336,0.384
		c-1.889,0-3.544-0.288-4.968-0.864c-1.424-0.576-2.696-1.632-3.816-3.168l3.264-2.688c0.704,0.704,1.488,1.328,2.352,1.872
		c0.864,0.544,1.92,0.816,3.168,0.816c0.544,0,1.096-0.056,1.656-0.168c0.559-0.112,1.056-0.288,1.488-0.528
		c0.432-0.24,0.784-0.544,1.056-0.912c0.271-0.368,0.408-0.792,0.408-1.272c0-0.64-0.2-1.168-0.6-1.584
		c-0.401-0.416-0.881-0.744-1.44-0.984c-0.56-0.24-1.152-0.432-1.776-0.576s-1.176-0.264-1.656-0.36
		c-0.929-0.224-1.809-0.48-2.64-0.768c-0.833-0.288-1.568-0.672-2.208-1.152c-0.641-0.48-1.152-1.088-1.536-1.824
		c-0.384-0.736-0.576-1.648-0.576-2.736c0-1.184,0.247-2.216,0.744-3.096c0.496-0.88,1.152-1.608,1.968-2.184
		c0.816-0.576,1.744-1.008,2.784-1.296c1.04-0.288,2.088-0.432,3.144-0.432c1.536,0,3.008,0.288,4.416,0.864
		c1.408,0.576,2.528,1.536,3.36,2.88L81.86,38.249z"/>
	<path d="M95.731,32.537v26.016c0,0.576-0.041,1.335-0.12,2.28c-0.08,0.943-0.336,1.855-0.768,2.736
		c-0.432,0.88-1.121,1.64-2.064,2.28c-0.944,0.64-2.28,0.96-4.008,0.96c-0.48,0-0.953-0.032-1.416-0.096
		c-0.463-0.064-0.919-0.176-1.368-0.336l0.48-3.984c0.257,0.096,0.545,0.184,0.864,0.264c0.32,0.079,0.624,0.12,0.912,0.12
		c1.184,0,2.008-0.376,2.472-1.128c0.464-0.752,0.696-1.848,0.696-3.288V32.537H95.731z M90.403,24.377
		c0-0.864,0.312-1.608,0.936-2.232s1.368-0.936,2.232-0.936c0.864,0,1.608,0.312,2.232,0.936s0.936,1.368,0.936,2.232
		c0,0.864-0.312,1.608-0.936,2.232s-1.368,0.936-2.232,0.936c-0.864,0-1.608-0.312-2.232-0.936S90.403,25.241,90.403,24.377z"/>
	<path d="M102.691,35.321c1.216-1.12,2.624-1.96,4.224-2.52c1.6-0.56,3.2-0.84,4.8-0.84c1.664,0,3.096,0.208,4.296,0.624
		c1.2,0.417,2.184,0.977,2.952,1.68c0.768,0.704,1.336,1.512,1.704,2.424c0.368,0.912,0.552,1.865,0.552,2.856v11.616
		c0,0.8,0.016,1.536,0.048,2.208c0.031,0.672,0.08,1.312,0.144,1.92h-3.84c-0.096-1.152-0.144-2.304-0.144-3.456h-0.096
		c-0.96,1.472-2.096,2.513-3.408,3.12c-1.312,0.607-2.832,0.912-4.56,0.912c-1.056,0-2.064-0.144-3.024-0.432s-1.8-0.72-2.52-1.296
		c-0.72-0.576-1.288-1.288-1.704-2.136c-0.417-0.848-0.624-1.832-0.624-2.952c0-1.471,0.328-2.704,0.984-3.696
		c0.655-0.992,1.552-1.8,2.688-2.424c1.135-0.624,2.464-1.072,3.984-1.344c1.52-0.271,3.144-0.408,4.872-0.408h3.168v-0.96
		c0-0.576-0.112-1.152-0.336-1.728c-0.224-0.576-0.56-1.096-1.008-1.56c-0.449-0.464-1.008-0.832-1.68-1.104
		c-0.672-0.271-1.472-0.408-2.4-0.408c-0.833,0-1.56,0.08-2.184,0.24s-1.192,0.36-1.704,0.6c-0.512,0.24-0.977,0.521-1.392,0.84
		c-0.416,0.32-0.816,0.624-1.2,0.912L102.691,35.321z M114.883,44.345c-1.024,0-2.072,0.056-3.144,0.168
		c-1.073,0.112-2.048,0.329-2.928,0.648c-0.88,0.32-1.601,0.768-2.16,1.344c-0.56,0.576-0.84,1.312-0.84,2.208
		c0,1.312,0.439,2.256,1.32,2.832c0.88,0.576,2.072,0.864,3.576,0.864c1.184,0,2.191-0.2,3.024-0.6
		c0.832-0.4,1.504-0.919,2.016-1.56c0.512-0.64,0.88-1.352,1.104-2.136c0.224-0.784,0.336-1.56,0.336-2.328v-1.44H114.883z"/>
	<path d="M127.507,32.537h4.032v3.552h0.096c0.097-0.319,0.344-0.72,0.744-1.2s0.912-0.936,1.536-1.368s1.36-0.799,2.208-1.104
		c0.848-0.304,1.783-0.456,2.809-0.456c1.695,0,3.119,0.353,4.271,1.056c1.152,0.704,2.096,1.76,2.832,3.168
		c0.735-1.408,1.776-2.464,3.12-3.168c1.344-0.704,2.704-1.056,4.08-1.056c1.76,0,3.199,0.288,4.319,0.864
		c1.12,0.576,2,1.336,2.641,2.28c0.64,0.944,1.08,2.016,1.32,3.216c0.239,1.2,0.359,2.44,0.359,3.72v13.248h-4.32V42.617
		c0-0.864-0.056-1.696-0.168-2.496c-0.112-0.799-0.344-1.504-0.695-2.112c-0.353-0.608-0.849-1.096-1.488-1.464
		c-0.641-0.367-1.488-0.552-2.544-0.552c-2.08,0-3.568,0.641-4.464,1.92c-0.896,1.28-1.344,2.928-1.344,4.944v12.432h-4.32V43.385
		c0-1.088-0.057-2.08-0.168-2.976c-0.112-0.896-0.336-1.672-0.672-2.328c-0.336-0.655-0.816-1.168-1.44-1.536
		c-0.624-0.367-1.464-0.552-2.52-0.552c-0.769,0-1.513,0.152-2.232,0.456c-0.72,0.304-1.353,0.76-1.896,1.368
		c-0.545,0.608-0.977,1.385-1.296,2.328c-0.32,0.944-0.48,2.057-0.48,3.336v11.808h-4.32V32.537z"/>
	<path d="M171.811,55.577c-0.864,0-1.607-0.312-2.231-0.936s-0.937-1.368-0.937-2.232c0-0.864,0.312-1.608,0.937-2.232
		s1.367-0.936,2.231-0.936s1.608,0.312,2.232,0.936s0.936,1.368,0.936,2.232c0,0.864-0.312,1.608-0.936,2.232
		S172.675,55.577,171.811,55.577z"/>
	<path d="M198.019,38.585c-0.801-0.832-1.641-1.464-2.521-1.896s-1.928-0.648-3.144-0.648c-1.185,0-2.217,0.216-3.096,0.648
		c-0.881,0.432-1.616,1.024-2.208,1.776c-0.593,0.752-1.041,1.617-1.345,2.592c-0.304,0.977-0.456,1.992-0.456,3.048
		s0.176,2.057,0.528,3c0.352,0.944,0.848,1.769,1.488,2.472c0.64,0.704,1.407,1.256,2.304,1.656c0.896,0.401,1.903,0.6,3.024,0.6
		c1.216,0,2.256-0.216,3.12-0.648c0.863-0.432,1.663-1.063,2.399-1.896l3.072,3.072c-1.12,1.248-2.424,2.145-3.912,2.688
		c-1.488,0.544-3.064,0.816-4.728,0.816c-1.761,0-3.369-0.288-4.824-0.864c-1.457-0.576-2.712-1.384-3.769-2.424
		c-1.056-1.04-1.872-2.288-2.447-3.744c-0.576-1.456-0.864-3.063-0.864-4.824c0-1.76,0.288-3.376,0.864-4.848
		c0.575-1.472,1.384-2.736,2.424-3.792c1.039-1.056,2.287-1.879,3.744-2.472c1.455-0.592,3.079-0.888,4.872-0.888
		c1.663,0,3.255,0.296,4.775,0.888c1.52,0.593,2.84,1.497,3.96,2.712L198.019,38.585z"/>
	<path d="M203.778,43.913c0-1.664,0.312-3.216,0.936-4.656c0.624-1.44,1.48-2.704,2.568-3.792c1.088-1.087,2.368-1.944,3.84-2.568
		s3.056-0.936,4.752-0.936s3.28,0.312,4.752,0.936s2.752,1.48,3.84,2.568c1.088,1.088,1.944,2.352,2.568,3.792
		c0.624,1.44,0.936,2.993,0.936,4.656c0,1.664-0.312,3.224-0.936,4.68c-0.624,1.457-1.48,2.72-2.568,3.792
		c-1.088,1.072-2.368,1.92-3.84,2.544s-3.056,0.936-4.752,0.936s-3.28-0.312-4.752-0.936s-2.752-1.472-3.84-2.544
		c-1.088-1.072-1.944-2.335-2.568-3.792C204.09,47.137,203.778,45.577,203.778,43.913z M208.386,43.913
		c0,1.152,0.176,2.216,0.528,3.192c0.352,0.977,0.848,1.808,1.488,2.496c0.64,0.688,1.423,1.232,2.352,1.632
		c0.928,0.401,1.968,0.6,3.12,0.6s2.191-0.199,3.12-0.6c0.928-0.399,1.712-0.943,2.352-1.632c0.641-0.688,1.136-1.52,1.488-2.496
		c0.352-0.976,0.528-2.04,0.528-3.192s-0.177-2.215-0.528-3.192c-0.353-0.976-0.848-1.808-1.488-2.496
		c-0.64-0.688-1.424-1.231-2.352-1.632c-0.929-0.4-1.968-0.6-3.12-0.6s-2.192,0.2-3.12,0.6c-0.929,0.4-1.712,0.944-2.352,1.632
		c-0.641,0.688-1.137,1.52-1.488,2.496C208.562,41.698,208.386,42.761,208.386,43.913z"/>
	<path d="M233.394,32.537h4.032v3.552h0.096c0.097-0.319,0.344-0.72,0.744-1.2s0.912-0.936,1.536-1.368s1.36-0.799,2.208-1.104
		c0.848-0.304,1.783-0.456,2.809-0.456c1.695,0,3.119,0.353,4.271,1.056c1.152,0.704,2.096,1.76,2.832,3.168
		c0.735-1.408,1.776-2.464,3.12-3.168c1.344-0.704,2.704-1.056,4.08-1.056c1.76,0,3.199,0.288,4.319,0.864
		c1.12,0.576,2,1.336,2.641,2.28c0.64,0.944,1.08,2.016,1.32,3.216c0.239,1.2,0.359,2.44,0.359,3.72v13.248h-4.32V42.617
		c0-0.864-0.056-1.696-0.168-2.496c-0.112-0.799-0.344-1.504-0.695-2.112c-0.353-0.608-0.849-1.096-1.488-1.464
		c-0.641-0.367-1.488-0.552-2.544-0.552c-2.08,0-3.568,0.641-4.464,1.92c-0.896,1.28-1.344,2.928-1.344,4.944v12.432h-4.32V43.385
		c0-1.088-0.057-2.08-0.168-2.976c-0.112-0.896-0.336-1.672-0.672-2.328c-0.336-0.655-0.816-1.168-1.44-1.536
		c-0.624-0.367-1.464-0.552-2.52-0.552c-0.769,0-1.513,0.152-2.232,0.456c-0.72,0.304-1.353,0.76-1.896,1.368
		c-0.545,0.608-0.977,1.385-1.296,2.328c-0.32,0.944-0.48,2.057-0.48,3.336v11.808h-4.32V32.537z"/>
</g>
<g>
	<path d="M297,3v71.335H3V3H297 M300,0H0v77.335h300V0L300,0z"/>
</g>
</svg>
