<svg xmlns="http://www.w3.org/2000/svg" width="260" height="67.023" viewBox="0 0 260 67.023"><path d="M13.333 9.845h4.32V33.27l9.792-9.84h6L22.837 33.75l11.52 12.384h-6.144l-10.56-11.808v11.808h-4.32V9.845zm24.239 5.376c0-.864.312-1.608.936-2.232s1.368-.936 2.232-.936c.864 0 1.608.312 2.232.936s.936 1.368.936 2.232c0 .864-.312 1.608-.936 2.232s-1.368.936-2.232.936c-.864 0-1.608-.312-2.232-.936s-.936-1.368-.936-2.232zm1.009 8.16h4.32v22.752h-4.32V23.381zm23.279 5.712a6.635 6.635 0 0 0-1.896-1.608c-.752-.432-1.672-.648-2.76-.648-1.024 0-1.913.216-2.664.648-.752.432-1.128 1.064-1.128 1.896 0 .672.216 1.216.648 1.632.432.417.943.752 1.536 1.008a9.007 9.007 0 0 0 1.896.576c.672.128 1.248.24 1.728.336.928.225 1.8.497 2.616.816s1.52.736 2.112 1.248a5.444 5.444 0 0 1 1.392 1.872c.336.737.504 1.632.504 2.688 0 1.28-.272 2.376-.816 3.288a6.88 6.88 0 0 1-2.112 2.232c-.864.576-1.848.992-2.952 1.248s-2.216.384-3.336.384c-1.889 0-3.544-.288-4.968-.864-1.424-.576-2.696-1.632-3.816-3.168l3.264-2.688a13.439 13.439 0 0 0 2.352 1.872c.864.544 1.92.816 3.168.816a8.43 8.43 0 0 0 1.656-.168 5.119 5.119 0 0 0 1.488-.528c.432-.24.784-.544 1.056-.912a2.09 2.09 0 0 0 .408-1.272c0-.64-.2-1.168-.6-1.584a4.368 4.368 0 0 0-1.44-.984c-.56-.24-1.152-.432-1.776-.576s-1.176-.264-1.656-.36a28.372 28.372 0 0 1-2.64-.768 8.01 8.01 0 0 1-2.208-1.152 5.31 5.31 0 0 1-1.536-1.824c-.384-.736-.576-1.648-.576-2.736 0-1.184.247-2.216.744-3.096a6.612 6.612 0 0 1 1.968-2.184 8.902 8.902 0 0 1 2.784-1.296 11.73 11.73 0 0 1 3.144-.432c1.536 0 3.008.288 4.416.864 1.408.576 2.528 1.536 3.36 2.88l-3.36 2.544zm13.871-5.712v26.016c0 .576-.041 1.335-.12 2.28a7.635 7.635 0 0 1-.768 2.736c-.432.88-1.121 1.64-2.064 2.28-.944.64-2.28.96-4.008.96-.48 0-.953-.032-1.416-.096a6.867 6.867 0 0 1-1.368-.336l.48-3.984c.257.096.545.184.864.264.32.079.624.12.912.12 1.184 0 2.008-.376 2.472-1.128.464-.752.696-1.848.696-3.288V23.381h4.32zm-5.328-8.16c0-.864.312-1.608.936-2.232s1.368-.936 2.232-.936c.864 0 1.608.312 2.232.936s.936 1.368.936 2.232c0 .864-.312 1.608-.936 2.232s-1.368.936-2.232.936c-.864 0-1.608-.312-2.232-.936s-.936-1.368-.936-2.232zm12.288 10.945a12.027 12.027 0 0 1 4.224-2.52c1.6-.56 3.2-.84 4.8-.84 1.664 0 3.096.208 4.296.624 1.2.417 2.184.977 2.952 1.68a6.631 6.631 0 0 1 1.704 2.424c.368.912.552 1.865.552 2.856v11.616c0 .8.016 1.536.048 2.208.031.672.08 1.312.144 1.92h-3.84a41.598 41.598 0 0 1-.144-3.456h-.096c-.96 1.472-2.096 2.513-3.408 3.12-1.312.607-2.832.912-4.56.912-1.056 0-2.064-.144-3.024-.432s-1.8-.72-2.52-1.296a6.187 6.187 0 0 1-1.704-2.136c-.417-.848-.624-1.832-.624-2.952 0-1.471.328-2.704.984-3.696.655-.992 1.552-1.8 2.688-2.424 1.135-.624 2.464-1.072 3.984-1.344a27.754 27.754 0 0 1 4.872-.408h3.168v-.96c0-.576-.112-1.152-.336-1.728a4.666 4.666 0 0 0-1.008-1.56c-.449-.464-1.008-.832-1.68-1.104-.672-.271-1.472-.408-2.4-.408-.833 0-1.56.08-2.184.24s-1.192.36-1.704.6-.977.521-1.392.84c-.416.32-.816.624-1.2.912l-2.592-2.688zm12.192 9.023c-1.024 0-2.072.056-3.144.168a12.325 12.325 0 0 0-2.928.648c-.88.32-1.601.768-2.16 1.344-.56.576-.84 1.312-.84 2.208 0 1.312.439 2.256 1.32 2.832.88.576 2.072.864 3.576.864 1.184 0 2.191-.2 3.024-.6.832-.4 1.504-.919 2.016-1.56.512-.64.88-1.352 1.104-2.136.224-.784.336-1.56.336-2.328v-1.44h-2.304zm12.624-11.808h4.032v3.552h.096c.097-.319.344-.72.744-1.2s.912-.936 1.536-1.368 1.36-.799 2.208-1.104c.848-.304 1.783-.456 2.809-.456 1.695 0 3.119.353 4.271 1.056 1.152.704 2.096 1.76 2.832 3.168.735-1.408 1.776-2.464 3.12-3.168 1.344-.704 2.704-1.056 4.08-1.056 1.76 0 3.199.288 4.319.864 1.12.576 2 1.336 2.641 2.28.64.944 1.08 2.016 1.32 3.216.239 1.2.359 2.44.359 3.72v13.248h-4.32V33.461c0-.864-.056-1.696-.168-2.496-.112-.799-.344-1.504-.695-2.112a3.977 3.977 0 0 0-1.488-1.464c-.641-.367-1.488-.552-2.544-.552-2.08 0-3.568.641-4.464 1.92-.896 1.28-1.344 2.928-1.344 4.944v12.432h-4.32V34.229c0-1.088-.057-2.08-.168-2.976-.112-.896-.336-1.672-.672-2.328a3.712 3.712 0 0 0-1.44-1.536c-.624-.367-1.464-.552-2.52-.552-.769 0-1.513.152-2.232.456a5.27 5.27 0 0 0-1.896 1.368c-.545.608-.977 1.385-1.296 2.328-.32.944-.48 2.057-.48 3.336v11.808h-4.32V23.381zm44.304 23.04c-.864 0-1.607-.312-2.231-.936s-.937-1.368-.937-2.232c0-.864.312-1.608.937-2.232s1.367-.936 2.231-.936 1.608.312 2.232.936.936 1.368.936 2.232c0 .864-.312 1.608-.936 2.232s-1.368.936-2.232.936zm26.208-16.992c-.801-.832-1.641-1.464-2.521-1.896s-1.928-.648-3.144-.648c-1.185 0-2.217.216-3.096.648a6.298 6.298 0 0 0-2.208 1.776 7.978 7.978 0 0 0-1.345 2.592c-.304.977-.456 1.992-.456 3.048s.176 2.057.528 3a7.547 7.547 0 0 0 1.488 2.472 6.836 6.836 0 0 0 2.304 1.656c.896.401 1.903.6 3.024.6 1.216 0 2.256-.216 3.12-.648.863-.432 1.663-1.063 2.399-1.896l3.072 3.072c-1.12 1.248-2.424 2.145-3.912 2.688a13.66 13.66 0 0 1-4.728.816c-1.761 0-3.369-.288-4.824-.864-1.457-.576-2.712-1.384-3.769-2.424-1.056-1.04-1.872-2.288-2.447-3.744-.576-1.456-.864-3.063-.864-4.824 0-1.76.288-3.376.864-4.848.575-1.472 1.384-2.736 2.424-3.792 1.039-1.056 2.287-1.879 3.744-2.472 1.455-.592 3.079-.888 4.872-.888 1.663 0 3.255.296 4.775.888 1.52.593 2.84 1.497 3.96 2.712l-3.26 2.976zm5.759 5.328c0-1.664.312-3.216.936-4.656a12.13 12.13 0 0 1 2.568-3.792 12 12 0 0 1 3.84-2.568c1.472-.624 3.056-.936 4.752-.936s3.28.312 4.752.936 2.752 1.48 3.84 2.568a12.13 12.13 0 0 1 2.568 3.792c.624 1.44.936 2.993.936 4.656 0 1.664-.312 3.224-.936 4.68a11.762 11.762 0 0 1-2.568 3.792c-1.088 1.072-2.368 1.92-3.84 2.544s-3.056.936-4.752.936-3.28-.312-4.752-.936-2.752-1.472-3.84-2.544a11.762 11.762 0 0 1-2.568-3.792c-.624-1.456-.936-3.016-.936-4.68zm4.608 0c0 1.152.176 2.216.528 3.192.352.977.848 1.808 1.488 2.496a6.879 6.879 0 0 0 2.352 1.632c.928.401 1.968.6 3.12.6s2.191-.199 3.12-.6a6.861 6.861 0 0 0 2.352-1.632c.641-.688 1.136-1.52 1.488-2.496.352-.976.528-2.04.528-3.192s-.177-2.215-.528-3.192c-.353-.976-.848-1.808-1.488-2.496s-1.424-1.231-2.352-1.632c-.929-.4-1.968-.6-3.12-.6s-2.192.2-3.12.6c-.929.4-1.712.944-2.352 1.632-.641.688-1.137 1.52-1.488 2.496-.352.977-.528 2.04-.528 3.192zm25.008-11.376h4.032v3.552h.096c.097-.319.344-.72.744-1.2s.912-.936 1.536-1.368 1.36-.799 2.208-1.104c.848-.304 1.783-.456 2.809-.456 1.695 0 3.119.353 4.271 1.056 1.152.704 2.096 1.76 2.832 3.168.735-1.408 1.776-2.464 3.12-3.168 1.344-.704 2.704-1.056 4.08-1.056 1.76 0 3.199.288 4.319.864 1.12.576 2 1.336 2.641 2.28.64.944 1.08 2.016 1.32 3.216.239 1.2.359 2.44.359 3.72v13.248h-4.32V33.461c0-.864-.056-1.696-.168-2.496-.112-.799-.344-1.504-.695-2.112a3.977 3.977 0 0 0-1.488-1.464c-.641-.367-1.488-.552-2.544-.552-2.08 0-3.568.641-4.464 1.92-.896 1.28-1.344 2.928-1.344 4.944v12.432h-4.32V34.229c0-1.088-.057-2.08-.168-2.976-.112-.896-.336-1.672-.672-2.328a3.712 3.712 0 0 0-1.44-1.536c-.624-.367-1.464-.552-2.52-.552-.769 0-1.513.152-2.232.456a5.27 5.27 0 0 0-1.896 1.368c-.545.608-.977 1.385-1.296 2.328-.32.944-.48 2.057-.48 3.336v11.808h-4.32V23.381z"/><path d="M257 3v61.023H3V3h254m3-3H0v67.023h260V0z"/></svg>